# xmcd
#
# Track frame offsets:
#	150
#	27209
#	55167
#	74665
#	102414
#	119957
#	147081
#	175680
#	195174
#	207778
#	225012
#	250078
#
# Disc length: 3705 seconds
#
# Revision: 0
# Processed by: cddbd v1.5.1PL0 Copyright (c) Steve Scherf et al.
# Submitted via: dBpowerAMP V4.0
#
DISCID=a00e770c
DTITLE=Kenny Wayne Shepherd - Ledbetter Heightd
DYEAR=1995
DGENRE=Blues
TTITLE0=Born With A Broken Heart
TTITLE1=Déjà Voodoo
TTITLE2=Aberdeen
TTITLE3=Shame, Shame, Shame
TTITLE4=One Foot On The Path
TTITLE5=Everbody Gets The Blues
TTITLE6=While We Cry
TTITLE7=I'm Leaving You (Commit A Crime)
TTITLE8=(Let Me Up) I've Had Enough
TTITLE9=Riverside 
TTITLE10=What's Goin' Down
TTITLE11=Ledbetter Heights
EXTD=
EXTT0=
EXTT1=
EXTT2=
EXTT3=
EXTT4=
EXTT5=
EXTT6=
EXTT7=
EXTT8=
EXTT9=
EXTT10=
EXTT11=
PLAYORDER=
